<?xml version="1.0" encoding="UTF-8" standalone="no"?>
<!-- Created with Inkscape (http://www.inkscape.org/) -->

<svg
   width="391.79312mm"
   height="204.0145mm"
   viewBox="0 0 391.79312 204.0145"
   version="1.1"
   id="svg1"
   xmlns="http://www.w3.org/2000/svg"
   xmlns:svg="http://www.w3.org/2000/svg">
  <defs
     id="defs1" />
  <path
     id="path7"
     style="font-size:255.861px;line-height:3438.78px;font-family:'Cherry Bomb One';-inkscape-font-specification:'Cherry Bomb One, Normal';font-variant-ligatures:none;letter-spacing:0px;fill:#000000;fill-opacity:1;stroke-width:2.11667;stroke-linecap:square;paint-order:markers fill stroke"
     d="m 377.17646,-575.46823 c -1.75851,-0.0131 -3.36086,0.19011 -4.75888,0.62321 -13.3439,4.13396 -4.33927,29.74745 -4.33927,47.89217 0,18.44988 14.50857,31.21515 29.93564,31.21515 17.23918,0 31.29519,-13.92098 29.93616,-31.21515 -2.20478,-28.05663 -33.77468,-48.38829 -50.77365,-48.51538 z m -194.39847,0.19068 c -1.75851,-0.0131 -3.36086,0.19011 -4.75888,0.62322 -13.3439,4.13396 -4.33927,29.74745 -4.33927,47.89217 0,18.44988 14.50857,31.21515 29.93564,31.21515 17.23918,0 31.29519,-13.92098 29.93616,-31.21515 -2.20478,-28.05663 -33.77468,-48.3883 -50.77365,-48.51539 z m -120.68824,79.21894 c -5.45837,0 -9.893134,1.87597 -13.304614,5.6286 -3.41148,3.75263 -6.055506,8.69926 -7.931816,14.83992 -1.70574,6.14067 -2.89992,12.79333 -3.58221,19.95744 -0.6823,7.16411 -1.023193,14.15767 -1.023193,20.98063 0,6.82296 0.340893,13.90175 1.023193,21.23643 0.85287,7.33469 2.217497,14.15729 4.093807,20.46852 1.87632,6.31124 4.520336,11.42883 7.931816,15.35203 3.58205,3.9232 8.016824,5.8844 13.304614,5.8844 7.16411,0 12.111258,-1.87597 14.840438,-5.6286 2.72919,-3.9232 4.264253,-8.78461 4.605403,-14.58412 0.51173,-5.79952 0.767395,-11.68413 0.767395,-17.65422 0,-9.04042 1.364627,-16.29018 4.093807,-21.74855 2.72919,-5.62894 6.993508,-8.44341 12.793018,-8.44341 6.481812,0 11.001802,2.81447 13.560412,8.44341 2.55861,5.45837 3.83801,12.70813 3.83801,21.74855 0,5.97009 0.25619,11.93992 0.76791,17.91001 0.51172,5.79951 2.13201,10.66093 4.8612,14.58413 2.89976,3.75263 7.76117,5.62911 14.58413,5.62911 6.31123,0 11.17264,-1.87648 14.58412,-5.62911 3.58205,-3.9232 6.05511,-9.04028 7.4197,-15.35152 1.53517,-6.48181 2.3027,-13.64634 2.3027,-21.49275 0.17057,-15.35166 -1.70539,-28.82692 -5.62859,-40.42595 -3.75263,-11.7696 -9.80821,-20.98055 -18.16634,-27.63294 -8.35813,-6.65239 -19.10414,-9.97872 -32.23834,-9.97872 -5.79951,0 -11.002333,1.02372 -15.607833,3.07061 -4.43492,1.87631 -7.675514,3.92325 -9.722404,6.14071 -2.38804,-8.86985 -8.443623,-13.30461 -18.166333,-13.30461 z m 210.31843,1.79059 c -6.48181,0 -11.51419,1.70604 -15.09624,5.11752 -3.41148,3.24091 -5.88453,7.50522 -7.4197,12.79301 -1.36459,5.28779 -2.21735,11.08718 -2.5585,17.39842 -0.17056,6.14066 -0.2558,12.19625 -0.2558,18.16634 0,8.86985 0.34091,17.4837 1.0232,25.84183 0.6823,8.35813 1.96169,15.77833 3.838,22.26014 1.87631,6.48181 4.60557,11.68412 8.18762,15.60732 3.75263,3.75263 8.52881,5.62911 14.32832,5.62911 6.14067,0 10.8311,-1.44984 14.07201,-4.3496 3.24091,-3.07033 5.4583,-6.99376 6.65231,-11.76983 1.36459,-4.77607 2.13213,-9.7227 2.3027,-14.83992 0.34115,-5.2878 0.51211,-10.1492 0.51211,-14.58412 0,-8.5287 2.55828,-15.26659 7.6755,-20.21324 5.28779,-5.11722 11.08771,-7.6755 17.39894,-7.6755 2.38804,0 4.43446,0.3409 6.1402,1.02319 1.70574,0.6823 3.497,1.44984 5.37331,2.30271 1.87631,0.6823 4.26415,1.02371 7.16391,1.02371 6.65238,0 11.76997,-2.21738 15.35203,-6.65231 3.75263,-4.43492 5.6286,-9.12588 5.6286,-14.07253 0,-5.79952 -1.96119,-11.00182 -5.8844,-15.60731 -3.9232,-4.6055 -8.69938,-8.18751 -14.32832,-10.74612 -5.62894,-2.72919 -11.17266,-4.0938 -16.63103,-4.0938 -6.48181,0 -12.79306,0.85276 -18.93373,2.5585 -5.97009,1.53517 -10.91671,4.09345 -14.83992,7.6755 -1.02344,-4.26435 -3.41127,-7.41972 -7.1639,-9.46661 -3.75263,-2.21746 -7.93173,-3.32641 -12.53722,-3.32641 z m -68.05941,12.28142 c -6.82296,0 -11.94004,1.96171 -15.35152,5.88491 -3.41148,3.75263 -5.71409,9.72247 -6.90811,17.91002 -1.02344,8.18755 -1.5353,18.6779 -1.5353,31.47095 0.17057,12.79305 0.76766,23.28339 1.7911,31.47094 1.19402,8.01698 3.4114,13.98734 6.65231,17.91054 3.41148,3.92321 8.52856,5.88491 15.35152,5.88491 6.82296,0 11.94003,-1.9617 15.35151,-5.88491 3.41148,-3.9232 5.71462,-9.89356 6.90863,-17.91054 1.19402,-8.18755 1.70536,-18.67789 1.53479,-31.47094 0,-12.79305 -0.59657,-23.2834 -1.79059,-31.47095 -1.19401,-8.18755 -3.49714,-14.15739 -6.90862,-17.91002 -3.24091,-3.9232 -8.27276,-5.88491 -15.09572,-5.88491 z m 193.43108,0 c -6.82296,0 -11.94003,1.96171 -15.35151,5.88491 -3.41148,3.75263 -5.71462,9.72247 -6.90863,17.91002 -1.02345,8.18755 -1.53479,18.6779 -1.53479,31.47095 0.17057,12.79305 0.76766,23.28339 1.79111,31.47094 1.19401,8.01698 3.4114,13.98734 6.65231,17.91054 3.41148,3.92321 8.52855,5.88491 15.35151,5.88491 6.82296,0 11.94004,-1.9617 15.35152,-5.88491 3.41148,-3.9232 5.7146,-9.89356 6.90862,-17.91054 1.19402,-8.18755 1.70536,-18.67789 1.53479,-31.47094 0,-12.79305 -0.59708,-23.2834 -1.7911,-31.47095 -1.19402,-8.18755 -3.49663,-14.15739 -6.90811,-17.91002 -3.24091,-3.9232 -8.27276,-5.88491 -15.09572,-5.88491 z"
     transform="translate(-36.247917,575.46883)" />
</svg>
